:SAMPLES-PER-SECOND 30
:FULLY-SPECIFIED
:DEGREES
318
root  44.153 35.7706 -9.71987 -122.982 83.9759 -167.337
RightUpLeg  -83.9784 -16.3789 30.7741
RightLeg  43.6025 3.10261 2.85024
RightFoot  -0.824553 1.32509 -14.3642
RightToes  0.00048216 0.542163 -0.142577
Spine  72.7526 -3.66205 6.83678
Spine1  2.45184 2.08468 -6.178
HEad  -43.4737 -5.1852 3.00624
LeftShoulder1  6.3317 -24.7976 -15.4299
LeftArm  -97.7724 -60.5388 45.6286
LeftForeArm  -7.42426 -12.5905 2.04443
LeftHand  -0.25398 0.0180481 5.50724
RightShoulder  3.37695 15.6851 10.3365
RightArm  -80.1917 54.7816 -23.2512
RightForeArm  -20.1652 17.9466 4.04033
RightHand  0.0766826 9.04272 0.113212
LeftUpLeg  -82.9179 17.9416 -18.3752
LeftLeg  46.9335 -2.56717 -2.51656
LeftFoot  -3.44821 -0.235049 3.707
LeftToes  1.06243e-005 4.65856e-005 -8.18503e-006
319
root  44.2069 35.8529 -9.80902 -122.815 84.1641 -167.341
RightUpLeg  -84.0712 -16.7171 31.2648
RightLeg  43.198 3.32326 3.03032
RightFoot  -0.642934 1.32064 -14.0623
RightToes  0.00048216 0.542163 -0.142577
Spine  72.602 -3.80302 6.68659
Spine1  2.54253 1.9228 -6.53652
HEad  -43.4628 -4.76636 3.22114
LeftShoulder1  6.39719 -24.2926 -16.1379
LeftArm  -98.8322 -61.0095 45.0417
LeftForeArm  -5.21235 -13.8482 1.37341
LeftHand  -0.25398 0.0180481 5.50724
RightShoulder  3.5641 15.7153 11.3869
RightArm  -80.4152 54.5286 -23.2997
RightForeArm  -19.0831 19.2825 4.5474
RightHand  0.343836 8.41297 2.39811
LeftUpLeg  -82.9905 18.0372 -19.043
LeftLeg  46.669 -2.47883 -2.39079
LeftFoot  -3.0372 -0.264985 3.90131
LeftToes  1.06243e-005 4.65856e-005 -8.18503e-006
320
root  44.202 35.9528 -9.90905 -124.597 84.4559 -169.015
RightUpLeg  -83.8607 -17.0965 31.2517
RightLeg  42.6366 3.37136 3.01693
RightFoot  -0.378409 1.33365 -13.8383
RightToes  0.00048216 0.542163 -0.142577
Spine  72.3884 -3.9461 6.63849
Spine1  2.49408 1.78624 -6.81366
HEad  -43.4221 -4.56775 3.31458
LeftShoulder1  6.38003 -23.9779 -16.3633
LeftArm  -97.2681 -61.8429 43.3891
LeftForeArm  -5.64405 -14.1176 0.838522
LeftHand  -0.25398 0.0180481 5.50724
RightShoulder  3.75538 15.9921 12.1804
RightArm  -80.7284 53.8294 -22.4799
RightForeArm  -17.0092 20.0575 4.70576
RightHand  0.700772 7.95421 5.5983
LeftUpLeg  -82.6329 18.1529 -19.8239
LeftLeg  46.1129 -2.50429 -2.36828
LeftFoot  -2.62961 -0.295665 4.08921
LeftToes  1.06243e-005 4.65856e-005 -8.18503e-006
321
root  44.1479 36.069 -10.0278 -126.069 84.6307 -170.084
RightUpLeg  -83.2128 -17.4764 31.0772
RightLeg  41.7746 3.32492 2.87985
RightFoot  -0.00280203 1.41217 -14.1334
RightToes  0.00048216 0.542163 -0.142577
Spine  72.099 -3.9988 6.83491
Spine1  2.33934 1.82977 -6.68395
HEad  -43.3273 -4.59526 3.07325
LeftShoulder1  6.40784 -23.5394 -16.8908
LeftArm  -95.741 -63.0253 40.2595
LeftForeArm  -4.98892 -15.268 -0.0989377
LeftHand  -0.25398 0.0180481 5.50724
RightShoulder  3.91784 16.1789 12.8879
RightArm  -80.3484 52.8638 -21.5011
RightForeArm  -14.0305 20.8883 4.87651
RightHand  1.01871 7.4394 8.70396
LeftUpLeg  -81.9393 18.3609 -20.3875
LeftLeg  45.4121 -2.63008 -2.44205
LeftFoot  -2.31464 -0.324977 4.2923
LeftToes  1.06243e-005 4.65856e-005 -8.18503e-006
322
root  44.0543 36.2218 -10.1631 -126.679 84.6911 -169.967
RightUpLeg  -82.059 -18.0171 30.9652
RightLeg  40.4385 3.4356 2.84324
RightFoot  0.454445 1.5182 -14.5691
RightToes  0.00048216 0.542163 -0.142577
Spine  71.702 -4.06419 7.13041
Spine1  2.40491 1.93053 -6.48305
HEad  -43.2023 -4.62468 2.86243
LeftShoulder1  6.51549 -23.2498 -17.6057
LeftArm  -94.0648 -63.8177 36.1601
LeftForeArm  -2.35893 -17.1624 -1.36937
LeftHand  -0.25398 0.0180481 5.50724
RightShoulder  4.04739 16.3662 13.3973
RightArm  -78.5935 51.6321 -20.1676
RightForeArm  -11.2287 22.1506 5.18845
RightHand  1.12153 6.58516 10.3602
LeftUpLeg  -80.8501 18.6424 -20.6878
LeftLeg  44.5032 -2.76138 -2.49676
LeftFoot  -1.98549 -0.374788 4.72324
LeftToes  1.06243e-005 4.65856e-005 -8.18503e-006
323
root  43.9253 36.4258 -10.3122 -127.883 84.8062 -170.184
RightUpLeg  -80.4934 -18.8212 30.7956
RightLeg  38.6491 3.79515 2.96993
RightFoot  0.998015 1.5844 -14.5003
RightToes  0.00048216 0.542163 -0.142577
Spine  71.0993 -4.27571 7.27613
Spine1  2.907 1.85314 -6.65224
HEad  -42.9738 -4.43717 3.09486
LeftShoulder1  6.67992 -23.4962 -18.0185
LeftArm  -90.5609 -63.5919 31.8586
LeftForeArm  -0.465059 -18.5907 -2.40767
LeftHand  -0.25398 0.0180481 5.50724
RightShoulder  4.1424 16.7134 13.5263
RightArm  -75.3637 50.0178 -17.3839
RightForeArm  -9.67574 24.2362 5.6723
RightHand  1.06119 5.63723 10.7014
LeftUpLeg  -79.2534 18.8837 -20.8458
LeftLeg  43.1807 -2.84108 -2.45407
LeftFoot  -1.52279 -0.445564 5.2904
LeftToes  1.06243e-005 4.65856e-005 -8.18503e-006
324
root  43.7612 36.6771 -10.4801 -130.046 85.0335 -171.214
RightUpLeg  -78.6749 -19.7986 30.4828
RightLeg  36.538 4.34891 3.18524
RightFoot  1.74351 1.63219 -14.0416
RightToes  0.00048216 0.542163 -0.142577
Spine  70.2623 -4.5397 7.24043
Spine1  3.55472 1.65023 -7.04144
HEad  -42.5294 -4.2053 3.52875
LeftShoulder1  6.85185 -24.072 -18.1229
LeftArm  -84.9967 -62.5828 26.5806
LeftForeArm  -0.517042 -19.6465 -3.21639
LeftHand  -0.25398 0.0180481 5.50724
RightShoulder  4.20926 17.0085 13.5568
RightArm  -70.5316 48.0226 -12.9703
RightForeArm  -10.1199 27.4436 6.43682
RightHand  1.02022 4.96137 11.0066
LeftUpLeg  -77.2064 18.996 -20.8262
LeftLeg  41.4099 -2.82449 -2.27778
LeftFoot  -0.880851 -0.514157 5.67131
LeftToes  1.06243e-005 4.65856e-005 -8.18503e-006
